<?xml version="1.0" encoding="UTF-8" standalone="no"?>
<!-- Created with Inkscape (http://www.inkscape.org/) -->

<svg
   width="136.327mm"
   height="136.327mm"
   viewBox="0 0 136.327 136.327"
   version="1.1"
   id="svg5"
   inkscape:version="1.2 (dc2aedaf03, 2022-05-15)"
   xml:space="preserve"
   sodipodi:docname="Avon_(2023).svg"
   xmlns:inkscape="http://www.inkscape.org/namespaces/inkscape"
   xmlns:sodipodi="http://sodipodi.sourceforge.net/DTD/sodipodi-0.dtd"
   xmlns="http://www.w3.org/2000/svg"
   xmlns:svg="http://www.w3.org/2000/svg"><sodipodi:namedview
     id="namedview7"
     pagecolor="#626262"
     bordercolor="#000000"
     borderopacity="0.25"
     inkscape:showpageshadow="2"
     inkscape:pageopacity="0"
     inkscape:pagecheckerboard="true"
     inkscape:deskcolor="#383838"
     inkscape:document-units="mm"
     showgrid="false"
     inkscape:zoom="0.55981979"
     inkscape:cx="195.59866"
     inkscape:cy="209.88897"
     inkscape:window-width="1920"
     inkscape:window-height="991"
     inkscape:window-x="-9"
     inkscape:window-y="-9"
     inkscape:window-maximized="1"
     inkscape:current-layer="layer1" /><defs
     id="defs2"><clipPath
       id="clipPath617"><path
         fill="#ffffff"
         d="M 0,0 H 72 V 72 H 0 Z"
         id="path615" /></clipPath><mask
       id="mask621"
       maskUnits="userSpaceOnUse"
       x="0"
       y="0"
       width="72"
       height="72"><path
         d="M 72,0 H 0 v 72 h 72 z"
         fill="#ffffff"
         id="path619" /></mask><clipPath
       id="clipPath666"><path
         fill="#ffffff"
         d="M 0,0 H 72 V 72 H 0 Z"
         id="path664" /></clipPath><clipPath
       id="a-7"><path
         fill="#ffffff"
         d="M 0,0 H 72 V 72 H 0 Z"
         id="path140" /></clipPath><mask
       id="b-1"
       maskUnits="userSpaceOnUse"
       x="0"
       y="0"
       width="72"
       height="72"><path
         d="M 72,0 H 0 v 72 h 72 z"
         fill="#ffffff"
         id="path129" /></mask><clipPath
       id="clipPath727"><path
         fill="#ffffff"
         d="M 0,0 H 72 V 72 H 0 Z"
         id="path725" /></clipPath><mask
       id="mask731"
       maskUnits="userSpaceOnUse"
       x="0"
       y="0"
       width="72"
       height="72"><path
         d="M 72,0 H 0 v 72 h 72 z"
         fill="#ffffff"
         id="path729" /></mask><clipPath
       id="clipPath776"><path
         fill="#ffffff"
         d="M 0,0 H 72 V 72 H 0 Z"
         id="path774" /></clipPath><clipPath
       id="a-5"><path
         fill="#ffffff"
         d="M 0,0 H 72 V 72 H 0 Z"
         id="path221-3" /></clipPath><mask
       id="b-7"
       maskUnits="userSpaceOnUse"
       x="0"
       y="0"
       width="72"
       height="72"><path
         d="M 72,0 H 0 v 72 h 72 z"
         fill="#ffffff"
         id="path210-4" /></mask><clipPath
       id="clipPath837"><path
         fill="#ffffff"
         d="M 0,0 H 72 V 72 H 0 Z"
         id="path835" /></clipPath><mask
       id="mask841"
       maskUnits="userSpaceOnUse"
       x="0"
       y="0"
       width="72"
       height="72"><path
         d="M 72,0 H 0 v 72 h 72 z"
         fill="#ffffff"
         id="path839" /></mask><clipPath
       id="clipPath886"><path
         fill="#ffffff"
         d="M 0,0 H 72 V 72 H 0 Z"
         id="path884" /></clipPath><clipPath
       id="a-2"><path
         fill="#ffffff"
         d="M 0,0 H 72 V 72 H 0 Z"
         id="path140-4" /></clipPath><mask
       id="b-0"
       maskUnits="userSpaceOnUse"
       x="0"
       y="0"
       width="72"
       height="72"><path
         d="M 72,0 H 0 v 72 h 72 z"
         fill="#ffffff"
         id="path129-4" /></mask><clipPath
       id="clipPath2159"><path
         fill="#ffffff"
         d="M 0,0 H 72 V 72 H 0 Z"
         id="path2157" /></clipPath><mask
       id="mask2163"
       maskUnits="userSpaceOnUse"
       x="0"
       y="0"
       width="72"
       height="72"><path
         d="M 72,0 H 0 v 72 h 72 z"
         fill="#ffffff"
         id="path2161" /></mask><clipPath
       id="clipPath2208"><path
         fill="#ffffff"
         d="M 0,0 H 72 V 72 H 0 Z"
         id="path2206" /></clipPath><defs
       id="defs2243"><clipPath
         id="clipPath2241"><path
           fill="#ffffff"
           d="M 0,0 H 72 V 72 H 0 Z"
           id="path2239" /></clipPath></defs><mask
       id="mask2229"
       maskUnits="userSpaceOnUse"
       x="0"
       y="0"
       width="72"
       height="72"><path
         d="M 72,0 H 0 v 72 h 72 z"
         fill="#ffffff"
         id="path2227" /></mask></defs><g
     inkscape:label="Layer 1"
     inkscape:groupmode="layer"
     id="layer1"
     transform="translate(-146.27732,-19.535809)"><g
       mask="none"
       id="g2235"
       transform="matrix(1.8934306,0,0,1.8934306,146.27732,19.535809)"><path
         d="M 72,0 H 0 v 72 h 72 z"
         fill="#e5004b"
         id="path2231" /><path
         d="m 10.017,64.839 1.19,-2.711 c 0.311,-0.046 0.61,-0.078 0.9,-0.102 0.289,-0.024 0.562,-0.035 0.827,-0.035 0.531,-0.005 1.06,0.05 1.58,0.163 0.458,0.105 0.898,0.28 1.303,0.52 0.402,0.241 0.768,0.54 1.086,0.888 0.353,0.39 0.662,0.819 0.923,1.277 h 2.626 L 14.822,52.756 H 13.01 L 7.394,64.839 Z m 3.91,-8.906 2.172,4.8 a 3.69,3.69 0 0 0 -1.21,-0.536 6.901,6.901 0 0 0 -1.737,-0.189 c -0.322,0 -0.674,0.017 -1.052,0.052 z m 13.484,8.906 5.575,-12.083 h -2.754 l -3.65,8.368 -3.643,-8.373 h -2.824 l 5.489,12.083 z m 13.725,0.467 a 7.11,7.11 0 0 0 2.667,-0.49 6.332,6.332 0 0 0 3.53,-3.444 c 0.68,-1.654 0.68,-3.51 0,-5.163 a 6.3,6.3 0 0 0 -1.408,-2.063 6.517,6.517 0 0 0 -2.122,-1.364 7.446,7.446 0 0 0 -5.317,0 6.5,6.5 0 0 0 -2.124,1.364 6.3,6.3 0 0 0 -1.408,2.063 6.81,6.81 0 0 0 0,5.163 6.326,6.326 0 0 0 3.532,3.445 c 0.847,0.332 1.749,0.499 2.658,0.49 m 0,-2.243 a 4.164,4.164 0 0 1 -1.648,-0.32 3.908,3.908 0 0 1 -1.303,-0.89 4.042,4.042 0 0 1 -0.87,-1.364 4.696,4.696 0 0 1 -0.31,-1.724 c -0.005,-0.579 0.1,-1.153 0.31,-1.692 a 3.962,3.962 0 0 1 2.173,-2.22 4.416,4.416 0 0 1 3.297,0 3.987,3.987 0 0 1 2.172,2.22 c 0.212,0.538 0.317,1.113 0.31,1.692 a 4.644,4.644 0 0 1 -0.31,1.737 4.042,4.042 0 0 1 -0.869,1.356 c -0.37,0.38 -0.813,0.684 -1.303,0.89 a 4.18,4.18 0 0 1 -1.649,0.32 M 51.588,52.762 V 64.84 h 2.486 v -7.683 l 6.517,7.683 h 1.932 V 52.756 H 60.03 v 7.682 l -6.516,-7.682 -1.927,0.006 z"
         fill="#ffffff"
         id="path2233" /></g></g></svg>
