<?xml version="1.0" encoding="UTF-8" ?>
<!DOCTYPE svg PUBLIC "-//W3C//DTD SVG 1.1//EN" "http://www.w3.org/Graphics/SVG/1.1/DTD/svg11.dtd">
<svg width="463pt" height="121pt" viewBox="0 0 972 255" version="1.1" xmlns="http://www.w3.org/2000/svg">
 <path fill="#000000" d=" M 141.76 18.95 C 143.49 15.65 144.78 12.11 147.00 9.08 C 150.81 15.51 153.76 22.39 157.24 28.99 C 158.16 31.02 159.13 33.03 160.17 35.00 C 161.10 37.02 162.08 39.02 163.13 40.98 C 169.78 55.12 177.22 68.87 183.88 83.00 C 184.97 84.95 185.93 86.97 186.80 89.02 C 193.95 103.33 201.09 117.64 208.18 131.97 C 209.08 133.66 209.83 135.42 210.64 137.15 C 211.13 138.08 211.62 139.01 212.12 139.94 C 219.68 155.65 227.79 171.08 235.27 186.83 C 235.94 188.16 236.58 189.50 237.25 190.84 C 243.81 203.34 250.04 216.69 261.06 225.96 C 267.10 231.07 274.89 233.15 282.10 235.85 C 282.17 236.42 282.33 237.57 282.41 238.14 C 282.17 238.70 281.70 239.81 281.47 240.37 C 236.22 240.27 190.97 240.48 145.73 240.27 C 145.71 238.72 145.69 237.17 145.67 235.63 C 152.41 233.96 159.46 231.23 163.38 225.13 C 165.57 220.27 165.43 214.99 164.15 209.93 C 163.77 208.62 163.47 207.29 163.15 205.98 C 162.24 203.28 161.31 200.58 160.39 197.88 C 159.86 196.61 159.36 195.34 158.84 194.08 C 158.22 192.40 157.53 190.76 156.78 189.13 C 156.22 187.75 155.65 186.37 155.09 184.99 C 129.76 185.05 104.42 184.92 79.09 185.05 C 78.20 194.40 78.46 203.91 80.16 213.16 C 81.78 221.98 86.73 230.38 94.40 235.23 C 94.45 236.93 94.46 238.65 94.46 240.36 C 66.56 240.30 38.66 240.43 10.76 240.30 C 10.73 238.73 10.70 237.16 10.66 235.60 C 21.37 232.16 30.09 224.61 37.59 216.49 C 47.90 204.82 56.38 191.62 63.84 177.99 C 65.36 175.39 66.66 172.66 68.20 170.07 C 68.68 169.04 69.16 168.01 69.66 167.00 C 75.90 154.74 81.99 142.40 87.86 129.97 C 88.61 128.67 89.24 127.31 89.79 125.92 C 90.27 124.98 90.76 124.06 91.27 123.14 C 92.08 121.41 92.82 119.64 93.69 117.94 C 98.78 107.26 104.17 96.73 109.30 86.07 C 110.16 84.38 110.92 82.64 111.72 80.93 C 112.76 78.94 113.70 76.89 114.61 74.83 C 122.89 57.98 131.15 41.10 139.29 24.18 C 140.12 22.44 140.94 20.69 141.76 18.95 M 110.86 95.46 C 110.38 96.68 109.85 97.88 109.33 99.09 C 102.56 112.10 96.11 125.30 90.64 138.92 C 90.03 140.60 89.42 142.27 88.77 143.93 C 88.29 145.31 87.79 146.69 87.32 148.08 C 83.84 158.18 81.14 168.59 79.79 179.20 C 103.84 179.20 127.89 179.20 151.93 179.20 C 147.69 169.75 143.04 160.48 138.64 151.09 C 137.84 149.37 137.14 147.60 136.27 145.92 C 129.18 130.92 121.86 116.04 114.80 101.04 C 114.55 100.55 114.06 99.57 113.81 99.07 C 113.32 97.81 112.79 96.55 112.29 95.29 C 111.93 95.33 111.22 95.42 110.86 95.46 Z" />
 <path fill="#000000" d=" M 796.12 14.25 C 799.23 13.12 802.27 11.76 805.53 11.08 C 805.56 24.81 805.40 38.53 805.62 52.26 C 819.64 37.78 834.99 23.55 854.07 16.16 C 855.32 15.67 856.59 15.22 857.87 14.73 C 858.89 14.46 859.92 14.18 860.96 13.89 C 862.25 13.53 863.57 13.18 864.88 12.79 C 866.56 12.55 868.29 12.33 869.95 11.86 C 879.27 10.57 888.69 10.41 898.00 11.90 C 899.32 12.28 900.66 12.56 902.04 12.84 C 903.33 13.32 904.64 13.76 905.96 14.22 C 907.59 14.79 909.19 15.50 910.75 16.27 C 917.57 19.95 922.88 26.01 926.30 32.91 C 926.88 34.59 927.57 36.23 928.31 37.86 C 928.60 38.87 928.91 39.87 929.24 40.88 C 929.52 41.90 929.82 42.93 930.14 43.95 C 931.61 50.61 932.64 57.37 932.74 64.21 C 933.54 67.40 933.16 70.71 933.23 73.96 C 933.26 116.62 933.18 159.29 933.28 201.95 C 933.41 206.33 933.13 210.78 934.08 215.09 C 934.55 220.61 935.89 226.75 940.50 230.33 C 945.90 234.39 952.94 234.74 959.41 235.52 C 959.35 237.06 959.36 238.61 959.18 240.15 C 947.14 240.63 935.05 240.21 923.00 240.35 C 896.17 240.32 869.34 240.41 842.52 240.31 C 841.11 239.16 841.87 237.16 841.62 235.61 C 848.32 235.13 856.05 232.81 858.80 225.99 C 859.25 224.68 859.70 223.36 860.20 222.06 C 860.40 220.35 860.59 218.63 861.09 216.99 C 861.89 205.69 861.57 194.36 861.65 183.05 C 861.58 150.69 861.83 118.33 861.49 85.97 C 861.21 81.04 861.69 76.04 860.74 71.16 C 860.56 69.10 860.39 67.04 860.15 64.98 C 859.76 63.62 859.50 62.22 859.27 60.83 C 858.78 59.56 858.34 58.28 857.91 57.00 C 854.73 49.21 846.10 44.68 837.96 44.51 C 825.49 44.38 814.14 51.41 805.68 60.01 C 805.30 100.99 805.63 142.02 805.52 183.01 C 805.51 192.72 805.50 202.42 805.82 212.12 C 806.39 214.73 806.54 217.40 806.74 220.06 C 807.26 221.69 807.71 223.34 808.24 224.98 C 810.49 232.30 818.76 234.34 825.49 234.98 C 825.49 236.50 825.50 238.02 825.53 239.54 C 783.45 239.59 741.37 239.55 699.29 239.56 C 699.29 238.03 699.29 236.50 699.32 234.97 C 709.04 234.28 720.74 234.61 727.58 226.39 C 734.30 217.06 733.11 204.87 734.16 194.04 C 734.48 166.05 734.24 138.06 734.31 110.07 C 734.44 101.49 733.53 92.96 733.39 84.39 L 732.83 84.47 C 732.44 74.34 729.27 63.38 721.00 56.87 C 714.24 51.21 705.17 50.12 696.79 48.79 C 696.65 47.34 696.52 45.88 696.39 44.43 C 704.99 42.53 713.51 40.21 722.10 38.24 C 723.69 37.73 725.31 37.29 726.89 36.72 C 727.45 36.62 728.55 36.41 729.10 36.31 C 730.67 35.79 732.28 35.34 733.87 34.85 C 750.15 30.25 766.14 24.69 782.12 19.15 C 783.08 18.79 784.05 18.44 785.04 18.11 C 787.74 17.17 790.43 16.20 793.13 15.26 C 794.11 14.91 795.11 14.57 796.12 14.25 Z" />
 <path fill="#000000" d=" M 550.05 14.20 C 562.01 11.49 574.33 12.44 586.47 12.73 L 586.38 13.38 C 588.55 13.45 590.73 13.58 592.90 13.81 C 594.55 14.34 596.28 14.57 598.01 14.81 C 599.67 15.26 601.36 15.61 603.04 16.07 C 604.33 16.42 605.67 16.74 606.97 17.14 C 607.51 17.27 608.58 17.54 609.12 17.67 C 610.11 18.01 611.11 18.34 612.12 18.67 C 613.36 19.16 614.64 19.63 615.90 20.11 C 630.70 25.63 644.15 34.55 655.51 45.48 C 669.60 59.67 680.07 77.59 684.99 97.00 C 685.33 98.35 685.62 99.70 685.97 101.05 C 686.88 105.84 687.82 110.67 687.65 115.58 L 688.30 115.52 C 688.15 121.33 689.00 127.26 687.79 132.98 C 687.54 135.96 687.63 139.00 686.85 141.91 C 686.59 143.59 686.37 145.29 686.00 146.96 C 679.92 175.49 662.29 200.84 639.16 218.28 C 628.08 226.51 615.84 233.18 602.86 237.87 C 601.87 238.18 600.89 238.49 599.91 238.78 C 597.60 239.54 595.28 240.26 592.94 240.87 C 589.65 241.80 586.23 242.19 582.96 243.18 C 581.00 243.41 579.04 243.60 577.10 243.85 C 573.45 244.70 569.67 244.44 565.97 244.70 C 564.66 244.83 563.36 245.00 562.07 245.16 C 556.81 244.05 551.30 245.12 546.06 243.80 C 544.36 243.59 542.66 243.42 540.97 243.23 C 539.36 242.60 537.64 242.43 535.96 242.18 C 534.60 241.77 533.22 241.48 531.86 241.21 C 513.89 236.37 497.09 227.24 483.45 214.56 C 470.29 202.32 460.15 186.85 454.06 169.95 C 453.71 168.97 453.37 168.00 453.04 167.02 C 452.71 165.98 452.37 164.94 452.04 163.91 C 451.67 162.48 451.43 161.01 451.21 159.56 L 450.65 159.50 C 450.51 158.31 450.37 157.11 450.22 155.92 C 449.03 151.48 448.39 146.86 448.39 142.26 L 447.75 142.65 C 447.57 135.92 447.60 129.18 447.71 122.45 L 448.36 122.62 C 448.41 119.94 448.57 117.25 448.68 114.57 L 449.32 114.50 C 449.39 112.34 449.48 110.15 450.14 108.08 C 450.41 106.73 450.67 105.38 451.10 104.07 C 451.44 102.76 451.78 101.44 452.14 100.13 C 452.43 99.09 452.73 98.06 453.04 97.03 C 453.38 96.05 453.74 95.06 454.10 94.08 C 466.37 59.78 495.13 32.59 529.11 20.12 C 530.37 19.62 531.62 19.13 532.89 18.62 C 534.60 18.11 536.30 17.57 538.03 17.08 C 539.05 16.76 540.08 16.45 541.12 16.15 C 544.05 15.29 547.04 14.66 550.05 14.20 M 502.07 49.06 C 501.69 50.38 501.33 51.71 500.95 53.03 C 499.81 59.63 500.48 66.42 502.08 72.88 C 505.90 88.87 512.47 104.01 518.78 119.14 C 520.15 122.09 521.47 125.07 522.71 128.08 C 529.34 142.65 536.72 156.85 544.20 170.99 C 544.89 172.29 545.58 173.59 546.28 174.89 C 549.40 180.63 552.68 186.28 556.17 191.80 C 564.24 204.05 572.79 216.74 585.44 224.70 C 595.17 231.01 608.22 230.45 618.18 224.99 C 626.52 220.12 633.41 211.96 635.15 202.28 C 636.46 194.16 634.73 185.99 632.54 178.18 C 629.03 165.76 624.05 153.83 619.23 141.88 C 617.95 139.33 616.98 136.65 615.76 134.08 C 610.41 121.77 604.22 109.85 598.19 97.87 C 597.08 95.95 596.10 93.95 595.15 91.95 C 594.04 89.95 592.98 87.94 591.89 85.94 C 586.87 76.26 581.29 66.88 575.21 57.83 C 567.21 46.13 558.12 34.00 544.81 28.08 C 527.94 21.67 508.17 32.68 502.07 49.06 Z" />
 <path fill="#000000" d=" M 194.42 15.67 C 240.13 15.72 285.85 15.78 331.57 15.63 L 331.52 16.47 L 332.38 16.49 C 332.37 17.48 332.35 19.46 332.34 20.45 C 326.87 21.99 321.10 23.77 317.08 28.02 C 313.18 31.86 312.12 37.83 313.29 43.04 C 315.58 56.52 322.23 68.67 327.81 81.00 C 328.52 82.31 329.32 83.61 329.72 85.07 C 330.21 86.02 330.71 86.96 331.20 87.90 C 338.12 102.63 345.38 117.21 352.38 131.90 C 352.62 132.42 353.10 133.45 353.34 133.96 C 353.85 135.32 354.52 136.60 355.21 137.88 C 358.59 145.37 362.40 152.65 365.86 160.10 C 369.40 152.78 372.76 145.38 376.27 138.06 C 376.74 136.98 377.23 135.91 377.68 134.82 C 379.25 131.64 380.71 128.39 382.18 125.17 C 389.05 109.09 395.16 92.39 396.85 74.88 C 398.13 65.73 398.14 56.26 396.86 47.11 C 396.19 37.24 391.38 27.64 383.31 21.78 C 381.19 20.76 381.73 18.26 381.50 16.36 L 382.59 16.69 L 382.39 15.66 C 410.13 15.76 437.87 15.71 465.61 15.68 C 465.64 17.31 465.78 18.95 465.58 20.57 C 459.28 22.71 453.45 26.11 448.41 30.46 C 438.31 38.74 430.36 49.28 423.23 60.14 C 415.63 71.94 408.78 84.22 402.62 96.82 C 401.79 98.56 401.01 100.32 400.20 102.06 C 393.81 115.40 387.17 128.61 380.72 141.92 C 379.87 143.62 379.13 145.37 378.27 147.07 C 377.59 148.39 376.97 149.74 376.36 151.10 C 367.19 170.01 357.87 188.85 348.80 207.81 C 343.69 218.61 338.21 229.23 333.08 240.02 C 332.39 241.35 331.74 242.71 331.32 244.15 C 330.60 245.05 329.85 245.93 329.07 246.79 C 327.62 244.27 326.40 241.63 325.21 238.98 C 319.42 227.32 313.59 215.68 307.84 204.00 C 307.34 202.95 306.83 201.90 306.33 200.85 C 299.64 186.82 292.48 173.03 285.76 159.02 C 284.88 157.32 284.06 155.59 283.25 153.87 C 282.11 151.60 281.02 149.31 279.85 147.07 C 273.59 133.57 266.44 120.49 260.19 106.99 C 259.70 106.01 259.21 105.04 258.71 104.08 C 258.46 103.58 257.97 102.56 257.73 102.06 C 257.28 101.03 256.82 100.01 256.35 99.00 C 255.55 97.68 254.84 96.32 254.32 94.87 C 253.83 93.95 253.35 93.03 252.86 92.12 C 247.13 80.30 241.20 68.57 235.32 56.83 C 234.80 55.91 234.28 55.00 233.77 54.08 C 228.07 43.16 220.98 32.09 209.88 26.03 C 204.94 23.38 199.51 21.87 194.11 20.47 C 194.21 18.87 194.30 17.27 194.42 15.67 Z" />
</svg>
