<?xml version="1.0" encoding="UTF-8" standalone="no"?>
<svg
   xmlns:dc="http://purl.org/dc/elements/1.1/"
   xmlns:cc="http://creativecommons.org/ns#"
   xmlns:rdf="http://www.w3.org/1999/02/22-rdf-syntax-ns#"
   xmlns:svg="http://www.w3.org/2000/svg"
   xmlns="http://www.w3.org/2000/svg"
   height="50.841988"
   width="300"
   id="svg889"
   version="1.1"
   viewBox="0 0 300 50.841986">
  <metadata
     id="metadata893">
    <rdf:RDF>
      <cc:Work
         rdf:about="">
        <dc:format>image/svg+xml</dc:format>
        <dc:type
           rdf:resource="http://purl.org/dc/dcmitype/StillImage" />
        <dc:title>Conmebol text logo 2021</dc:title>
      </cc:Work>
    </rdf:RDF>
  </metadata>
  <defs
     id="defs851">
    <style
       id="style833">.a{fill:#fff;}.b{fill:url(#a);}.c{fill:url(#b);}</style>
    <linearGradient
       gradientUnits="userSpaceOnUse"
       y2="85.349998"
       x2="67.120003"
       y1="14.84"
       x1="107.83"
       id="a">
      <stop
         id="stop835"
         stop-color="#8cbae4"
         offset="0" />
      <stop
         id="stop837"
         stop-color="#6dacdf"
         offset="0.11" />
      <stop
         id="stop839"
         stop-color="#005ca4"
         offset="0.54" />
      <stop
         id="stop841"
         stop-color="#005ca4"
         offset="1" />
    </linearGradient>
    <linearGradient
       gradientUnits="userSpaceOnUse"
       y2="107.3"
       x2="63.060001"
       y1="7.6799998"
       x1="120.58"
       id="b">
      <stop
         id="stop844"
         stop-color="#8cbae4"
         offset="0.05" />
      <stop
         id="stop846"
         stop-color="#005ca4"
         offset="0.54" />
      <stop
         id="stop848"
         stop-color="#005ca4"
         offset="1" />
    </linearGradient>
  </defs>
  <title
     id="title853">Conmebol text logo 2021</title>
  <g
     transform="matrix(1.6330974,0,0,1.6330974,0,-208.99584)"
     style="fill:#005ca4;fill-opacity:1"
     id="g1493">
    <path
       style="fill:#005ca4;fill-opacity:1"
       class="a"
       d="m 25.8,159.1 a 10.2,10.2 0 0 1 -2.7,-0.4 6.6,6.6 0 0 1 -2.5,-1.3 7.1,7.1 0 0 1 -1.8,-2.5 9.2,9.2 0 0 1 -0.7,-3.9 v -15.1 a 8.6,8.6 0 0 1 0.6,-3.1 7.3,7.3 0 0 1 4,-4.2 8.2,8.2 0 0 1 6.1,0 7.3,7.3 0 0 1 2.4,1.7 7.8,7.8 0 0 1 1.6,2.6 9.1,9.1 0 0 1 0.6,3.3 V 138 A 0.4,0.4 0 0 1 33,138.4 H 28.5 A 0.4,0.4 0 0 1 28.1,138 v -1.5 a 3.5,3.5 0 0 0 -0.7,-2.2 2.1,2.1 0 0 0 -1.8,-0.9 2,2 0 0 0 -1.9,0.9 5.6,5.6 0 0 0 -0.5,2.6 v 13.9 a 4.1,4.1 0 0 0 0.5,2.2 2,2 0 0 0 1.9,0.8 h 0.9 l 0.8,-0.5 a 2.3,2.3 0 0 0 0.6,-0.9 3.9,3.9 0 0 0 0.2,-1.5 v -1.5 a 0.4,0.4 0 0 1 0.4,-0.4 h 4.4 a 0.4,0.4 0 0 1 0.4,0.4 v 1.9 a 8.1,8.1 0 0 1 -2.2,5.5 8,8 0 0 1 -2.4,1.7 6.9,6.9 0 0 1 -2.9,0.6 z"
       id="path855" />
    <path
       style="fill:#005ca4;fill-opacity:1"
       class="a"
       d="m 44.4,159.1 a 8.1,8.1 0 0 1 -2.8,-0.5 7.9,7.9 0 0 1 -2.6,-1.6 7.7,7.7 0 0 1 -1.8,-2.6 8.9,8.9 0 0 1 -0.7,-3.7 v -14.4 a 9,9 0 0 1 0.7,-3.6 7.7,7.7 0 0 1 1.8,-2.6 7.9,7.9 0 0 1 2.6,-1.6 8,8 0 0 1 5.7,0 7.9,7.9 0 0 1 2.6,1.6 7.7,7.7 0 0 1 1.8,2.6 9,9 0 0 1 0.7,3.6 v 14.5 a 8.9,8.9 0 0 1 -0.7,3.7 7.7,7.7 0 0 1 -1.8,2.6 7.9,7.9 0 0 1 -2.6,1.6 8.2,8.2 0 0 1 -2.9,0.4 z m 0,-25.8 a 2.6,2.6 0 0 0 -2.7,3 v 14.5 a 2.8,2.8 0 0 0 0.8,2.2 3,3 0 0 0 3.9,0 2.8,2.8 0 0 0 0.8,-2.2 v -14.5 a 2.9,2.9 0 0 0 -0.8,-2.2 2.8,2.8 0 0 0 -2,-0.7 z"
       id="path857" />
    <path
       style="fill:#005ca4;fill-opacity:1"
       class="a"
       d="m 71.6,158.9 h -4.1 a 0.4,0.4 0 0 1 -0.4,-0.3 l -5.8,-15.1 a 0.3,0.3 0 0 0 -0.5,0.1 v 14.8 a 0.4,0.4 0 0 1 -0.4,0.4 h -4.5 a 0.4,0.4 0 0 1 -0.4,-0.4 v -29.7 a 0.4,0.4 0 0 1 0.4,-0.4 h 4.2 a 0.4,0.4 0 0 1 0.4,0.3 l 5.7,15.1 a 0.3,0.3 0 0 0 0.5,-0.1 v -14.9 a 0.4,0.4 0 0 1 0.4,-0.4 h 4.4 a 0.4,0.4 0 0 1 0.4,0.4 v 29.7 a 0.4,0.4 0 0 1 -0.3,0.5 z"
       id="path859" />
    <path
       style="fill:#005ca4;fill-opacity:1"
       class="a"
       d="m 96.7,158.9 h -4.4 a 0.4,0.4 0 0 1 -0.4,-0.4 v -14.8 a 0.3,0.3 0 0 0 -0.5,-0.1 l -3.4,10.6 -0.3,0.2 H 85.3 L 85,154.2 81.7,143.6 a 0.3,0.3 0 0 0 -0.5,0.1 v 14.7 a 0.4,0.4 0 0 1 -0.4,0.4 H 76.4 A 0.4,0.4 0 0 1 76,158.4 v -29.7 a 0.4,0.4 0 0 1 0.4,-0.4 h 4.2 a 0.4,0.4 0 0 1 0.4,0.3 l 5.3,14.3 a 0.3,0.3 0 0 0 0.5,0 L 92,128.5 a 0.4,0.4 0 0 1 0.4,-0.3 h 4.3 a 0.4,0.4 0 0 1 0.4,0.4 v 29.7 a 0.4,0.4 0 0 1 -0.4,0.6 z"
       id="path861" />
    <path
       style="fill:#005ca4;fill-opacity:1"
       class="a"
       d="m 114.8,158.9 h -13.3 a 0.4,0.4 0 0 1 -0.4,-0.4 v -29.8 a 0.4,0.4 0 0 1 0.4,-0.4 h 13.4 a 0.4,0.4 0 0 1 0.4,0.4 v 4.3 a 0.4,0.4 0 0 1 -0.4,0.4 h -8.3 a 0.3,0.3 0 0 0 -0.3,0.3 v 6.9 a 0.3,0.3 0 0 0 0.3,0.3 h 7.1 a 0.4,0.4 0 0 1 0.4,0.4 v 4.3 a 0.4,0.4 0 0 1 -0.4,0.4 h -7.1 a 0.3,0.3 0 0 0 -0.3,0.3 v 6.9 a 0.3,0.3 0 0 0 0.3,0.3 h 8.3 a 0.4,0.4 0 0 1 0.4,0.4 v 4.5 a 0.4,0.4 0 0 1 -0.5,0.5 z"
       id="path863" />
    <path
       style="fill:#005ca4;fill-opacity:1"
       class="a"
       d="m 124.7,158.9 h -6.1 a 0.4,0.4 0 0 1 -0.4,-0.4 v -29.8 a 0.4,0.4 0 0 1 0.4,-0.4 h 6.5 a 9.4,9.4 0 0 1 3.8,0.7 7.4,7.4 0 0 1 2.6,1.9 9,9 0 0 1 2,5.1 c 0.2,2.8 -0.4,5.6 -2.7,7.3 h -0.1 a 5.3,5.3 0 0 1 2,2.2 10.5,10.5 0 0 1 0.7,6 9,9 0 0 1 -2,4.9 c -1.4,1.6 -3.7,2.5 -6.7,2.5 z m -1.3,-5.7 a 0.3,0.3 0 0 0 0.3,0.3 h 1.3 a 4.4,4.4 0 0 0 2,-0.4 c 2.1,-1.1 2.2,-4.9 0.6,-6.5 l -0.3,-0.3 c -1,-0.7 -2.4,-0.5 -3.6,-0.5 a 0.3,0.3 0 0 0 -0.3,0.3 z m 0,-12.5 a 0.3,0.3 0 0 0 0.3,0.3 h 1.4 c 1.4,0 2.3,-0.3 2.8,-1 a 5.3,5.3 0 0 0 -0.1,-5.6 3.5,3.5 0 0 0 -2.9,-1 h -1.3 a 0.3,0.3 0 0 0 -0.3,0.3 z"
       id="path865" />
    <path
       style="fill:#005ca4;fill-opacity:1"
       class="a"
       d="m 144.4,159.1 a 8.1,8.1 0 0 1 -2.8,-0.5 7.9,7.9 0 0 1 -2.6,-1.6 7.7,7.7 0 0 1 -1.8,-2.6 8.9,8.9 0 0 1 -0.7,-3.7 v -14.4 a 9,9 0 0 1 0.7,-3.6 7.7,7.7 0 0 1 1.8,-2.6 7.9,7.9 0 0 1 2.6,-1.6 8,8 0 0 1 5.7,0 7.9,7.9 0 0 1 2.6,1.6 7.7,7.7 0 0 1 1.8,2.6 9,9 0 0 1 0.7,3.6 v 14.5 a 8.9,8.9 0 0 1 -0.7,3.7 7.7,7.7 0 0 1 -1.8,2.6 7.9,7.9 0 0 1 -2.6,1.6 8.2,8.2 0 0 1 -2.9,0.4 z m 0,-25.8 a 2.6,2.6 0 0 0 -2.7,3 v 14.5 a 2.8,2.8 0 0 0 0.8,2.2 3,3 0 0 0 3.9,0 2.8,2.8 0 0 0 0.8,-2.2 v -14.5 a 2.9,2.9 0 0 0 -0.8,-2.2 2.8,2.8 0 0 0 -2,-0.7 z"
       id="path867" />
    <path
       style="fill:#005ca4;fill-opacity:1"
       class="a"
       d="m 170.1,158.9 h -13.4 a 0.4,0.4 0 0 1 -0.4,-0.4 v -29.8 a 0.4,0.4 0 0 1 0.4,-0.4 h 4.4 a 0.4,0.4 0 0 1 0.4,0.4 v 24.5 a 0.3,0.3 0 0 0 0.3,0.3 h 8.3 a 0.4,0.4 0 0 1 0.4,0.4 v 4.5 a 0.4,0.4 0 0 1 -0.4,0.5 z"
       id="path869" />
    <rect
       style="fill:#005ca4;fill-opacity:1"
       class="a"
       x="173.8"
       y="140.89999"
       width="9.8999996"
       height="5.3899999"
       rx="0.1"
       ry="0.1"
       id="rect871" />
    <rect
       style="fill:#005ca4;fill-opacity:1"
       x="0"
       class="a"
       y="140.89999"
       width="9.8999996"
       height="5.3899999"
       rx="0.1"
       ry="0.1"
       id="rect873" />
  </g>
</svg>
