<?xml version="1.0" encoding="UTF-8" standalone="no"?><svg xmlns="http://www.w3.org/2000/svg" xml:space="preserve" height="400" width="272" version="1.0"><path id="societa" d="m90.594 379.41l3.094 3.12h1.812l-2-3.12h-2.906zm-84.156 4.28c-2.7968 0-5.6562 1.45-5.6562 4.56-0.00005 1.62 0.8007 3.24 3.4375 3.97 2.1387 0.59 3.5489 0.86 4.625 1.28 0.6269 0.23 1.2812 0.71 1.2812 1.91 0 1.16-0.9024 2.34-3.2812 2.34-2.1699 0-3.9063-0.95-3.9063-3.34h-2.75c0.07114 3.85 2.9562 5.53 6.5 5.53 3.0903 0 6.1565-1.37 6.1565-4.85 0-1.6-0.982-3.36-3.0315-3.97-0.8004-0.22-4.2242-1.11-4.4687-1.18-1.1117-0.3-1.8438-0.91-1.8438-2 0-1.56 1.5943-2.03 2.8438-2.03 1.8764 0 3.2504 0.73 3.375 2.75h2.7192c0-3.25-2.7501-4.97-6.0005-4.97zm17.032 0.03c-4.651 0-7.438 3.66-7.438 8.09 0 4.45 2.787 8.13 7.438 8.13 4.655 0 7.406-3.68 7.406-8.13 0-4.43-2.751-8.09-7.406-8.09zm18.156 0c-4.655 0-7.469 3.66-7.469 8.09 0 4.45 2.814 8.13 7.469 8.13 3.748 0 6.385-2.54 6.594-6.25h-2.657c-0.226 2.26-1.523 4.06-3.937 4.06-3.335 0-4.75-2.95-4.75-5.94 0-2.97 1.415-5.9 4.75-5.9 2.254 0 3.372 1.3 3.844 3.09h2.719c-0.347-3.35-3.09-5.28-6.563-5.28zm10.687 0.34v15.53h2.719v-15.53h-2.719zm8.094 0v15.53h11.344v-2.34h-8.625v-4.53h7.844v-2.25h-7.844v-4.06h8.469v-2.35h-11.188zm13.844 0v2.35h4.906v13.18h2.719v-13.18h4.937v-2.35h-12.562zm18.156 0l-5.937 15.53h2.781l1.469-4.09h6.187l1.438 4.09h2.936l-5.968-15.53h-2.906zm-68.937 1.85c3.321 0 4.687 2.93 4.687 5.9 0 2.99-1.366 5.94-4.687 5.94-3.335 0-4.719-2.95-4.719-5.94 0-2.97 1.384-5.9 4.719-5.9zm70.312 0.84h0.063l2.344 6.69h-4.719l2.312-6.69z" fill="#155196"/><path id="per" d="m112.06 384.06v15.53h2.72v-5.97h4.13c4.42 0.02 5.28-2.83 5.28-4.74 0-1.93-0.86-4.82-5.28-4.82h-6.85zm16.13 0v15.53h11.31v-2.34h-8.62v-4.53h7.84v-2.25h-7.84v-4.06h8.46v-2.35h-11.15zm15.31 0v15.53h2.72v-6.4h4c2.48 0 3.06 1.27 3.06 4.12 0 0.75 0.03 1.61 0.44 2.28h2.87c-0.57-0.62-0.81-2.28-0.81-4.09 0-2.45-1.37-3.16-2.31-3.28v-0.06c0.5-0.18 2.56-0.92 2.56-3.91 0-2.62-1.74-4.19-5.12-4.19h-7.41zm-28.72 2.22h4c1.42 0 2.69 0.51 2.69 2.56 0 1.97-1.52 2.57-2.72 2.57h-3.97v-5.13zm31.44 0h4.4c1.43 0 2.69 0.4 2.69 2.38 0 1.61-0.93 2.46-2.65 2.46h-4.44v-4.84z" fill="#155196"/><path id="azioni" d="m214.25 383.72c-4.67 0-7.44 3.66-7.44 8.09 0 4.45 2.77 8.13 7.44 8.13 4.64 0 7.44-3.68 7.44-8.13 0-4.43-2.8-8.09-7.44-8.09zm-42 0.34l-5.97 15.53h2.81l1.47-4.09h6.19l1.44 4.09h2.93l-5.96-15.53h-2.91zm11.94 0v2.35h8.34l-9.03 10.97v2.21h12.72v-2.34h-9.28l9.06-11.13v-2.06h-11.81zm16.22 0v15.53h2.71v-15.53h-2.71zm25.28 0v15.53h2.59v-11.4h0.03l7.1 11.4h2.84v-15.53h-2.56v11.44h-0.07l-7.06-11.44h-2.87zm17.4 0v15.53h2.75v-15.53h-2.75zm-28.84 1.85c3.32 0 4.72 2.93 4.72 5.9 0 2.99-1.4 5.94-4.72 5.94-3.33 0-4.72-2.95-4.72-5.94 0-2.97 1.39-5.9 4.72-5.9zm-40.59 0.84h0.03l2.31 6.69h-4.72l2.38-6.69z" fill="#155196"/><path id="fiat" d="m2 0.0625v363.13l25.938 0.09v-220.53h15.562v-33.72h-15.562v-77.842h25.937v-31.126l-51.875 0.0005zm62.25 0v363.13h25.969v-363.13l-25.969 0.0025zm51.87 0v121.41 29.12 212.6h25.94v-220.44h31.16v220.44h25.94v-260.75c0-55.685-22.44-102.38-32.07-102.38l-50.97 0.0025zm77.85 0v24.626h25.94v338.5h25.93v-338.5l25.97-0.002v-24.626l-77.84 0.0005zm-51.91 29.126h13.28c5.8 0 18 27.956 18 69.468 0 6.674-0.12 15.564-0.12 15.564h-31.16v-85.032z" fill="#155196"/></svg>
