<svg xmlns="http://www.w3.org/2000/svg" width="400" height="126.13" viewBox="0 0 400 126.133"><title>Companhia Hering</title><g fill="#aba19d" fill-rule="evenodd">
<path d="m136.71,36.858c0,2.115-2.115,3.625-3.625,3.625-2.266,0-3.474-2.115-3.474-3.625,0-2.266,1.51-3.474,3.474-3.474,2.266,0,3.625,1.963,3.625,3.474zm-73.867,0c0,1.964-1.662,3.625-3.625,3.625-2.266,0-3.474-2.115-3.474-3.625,0-1.813,1.208-3.474,3.474-3.474,1.963,0,3.625,1.661,3.625,3.474zm33.384,10.574c8.912-8.761,33.686-21.45,45.771-21.45,1.964,0,5.438,0,5.438,3.021,0,10.725-27.493,33.384-33.837,36.556,10.423,11.329,18.429,15.257,28.701,15.257l8.309-0.453c0.453,0,1.963-0.453,1.963,0.604,0,0.302-1.662,1.661-2.417,2.417-2.568,2.266-5.438,3.625-8.006,4.683-1.662,0.604-3.474,1.208-5.136,1.511-0.151,0.15-0.302,0.302-0.302,0.755,0,0.302,0.453,5.136,0.453,5.438,0,4.078-0.906,7.854-2.87,11.934h-0.604c-0.453-0.906-1.057-1.964-1.208-2.87-0.453-1.36-0.906-2.87-1.36-4.229-1.51-3.777-2.87-7.704-6.042-11.33-3.475-4.229-7.855-7.1-11.33-8.761-4.38-2.115-16.767-7.251-17.522-7.251-0.453,0-5.136,1.813-7.553,2.87-8.309,3.475-18.58,6.948-24.472,17.372-0.755,1.208-1.51,2.719-1.964,4.078-1.208,3.172-2.114,6.949-3.625,10.121h-0.755c-1.964-4.23-2.719-8.157-2.719-11.934,0-0.303,0.604-5.438,0.604-5.74,0-0.453-0.302-0.303-0.453-0.453-2.417-0.604-5.136-1.359-7.553-2.568-0.755-0.302-7.704-4.531-7.704-6.042,0-0.906,1.359-0.604,1.813-0.604l8.163,0.456c9.819,0.303,19.335-4.834,28.852-15.257-6.949-3.172-33.837-25.831-33.837-36.556,0-3.021,3.323-3.021,5.438-3.021,12.085,0.001,36.858,12.841,45.771,21.451zm4.834-40.786c1.813,0.151,3.625,0.151,5.438,0.302,36.556,2.417,75.227,24.169,75.227,56.043,0,8.156-2.568,16.162-8.157,24.169-15.257,21.147-43.504,29.153-61.48,31.42-2.87,0.302-8.308,0.906-8.761,0.906h-13.904c-2.87-0.302-5.891-0.604-8.61-0.906-22.507-2.72-55.438-13.6-67.069-41.39-0.604-1.662-2.568-8.61-2.568-11.632v-4.833c0.302-3.323,0.755-6.798,1.964-9.97,12.688-33.081,54.379-43.505,78.549-44.109h9.366zm4.682-6.495,9.517,0.906c34.592,3.777,77.643,26.587,77.643,61.934,0,9.214-2.568,18.127-9.517,27.492-8.61,11.48-20.695,19.335-30.967,24.018-5.438,2.418-11.631,4.834-16.918,6.345-3.927,1.208-8.006,2.114-12.084,2.87-0.453,0.151-15.106,2.417-18.58,2.417h-16.914c-3.323-0.302-6.646-0.755-9.97-1.058-4.079-0.45-8.308-1.2-12.236-2.11-20.997-4.68-51.813-16.92-62.991-44.562-0.906-2.265-2.719-9.213-2.719-12.085v-6.343c0.453-4.079,1.208-8.459,2.87-12.538,1.208-3.172,2.87-6.495,4.985-9.517,19.789-28.398,57.704-37.009,82.326-37.915l15.559,0.151z"/><path d="m388.07,51.208v24.018c-0.604,2.567-2.87,3.021-4.531,3.021-1.209,0-4.532-0.604-4.532-2.869v-24.17c0.151-2.266,3.021-3.021,4.532-3.021,1.208,0.001,4.531,0.755,4.531,3.021zm-120.25-0.302v9.97h-8.912v-9.97c0.303-1.813,3.172-2.719,4.532-2.719,0.907,0.001,4.38,0.755,4.38,2.719zm54.684-3.776v31.269h4.531v1.813h-16.616v-1.813h4.079v-29.758h-3.626v-1.511h11.632zm65.71,1.359c0.302-0.453,0.453-0.906,0.453-1.511h11.34v1.662h-3.928v41.087c-1.51,6.345-8.609,8.309-12.688,8.309-1.661,0-4.229-0.756-5.74-1.209-2.266-0.604-6.646-4.38-6.646-6.948v-4.38h7.854v6.797c0.303,1.964,3.173,3.172,4.532,3.172,1.661,0,4.381-1.208,4.834-3.172l-0.151-14.049c-3.323,2.418-4.531,2.72-7.251,2.72-0.302,0-1.661-0.151-2.417-0.302-3.322-0.151-7.401-4.684-7.401-7.705v-19.486c1.661-6.344,5.74-7.855,9.818-7.855,2.87,0,4.38,0.302,7.402,2.87zm-26.284,6.194v23.716h4.078v1.813h-14.803v-1.813h2.719v-27.493c-0.906-2.417-3.021-2.719-4.684-2.719-1.813,0-4.682,0.906-4.682,3.625v26.435c0.755,0.151,1.661,0.151,2.719,0v1.965h-15.257v-1.813h4.683v-29.758h-4.531v-1.662h11.782c0.151,0.453,0.453,1.058,0.755,1.511,2.719-2.568,4.531-2.87,7.1-2.87,4.985-0.001,10.121,3.322,10.121,9.063zm-53.475-3.626c0.303,0.604,0.756,1.813,0.756,2.266v3.323h-7.855v-5.892c-0.906-2.266-2.417-2.567-3.928-2.567-0.453,0-1.057,0-1.661,0.151s-2.417,1.813-2.417,2.719v27.341h4.078v1.813h-16.768v-1.813h4.684v-29.757h-4.684v-1.662h12.085c0.151,0.453,0.302,1.058,0.604,1.511,1.964-2.266,4.984-2.87,7.251-2.87,2.871-0.001,5.892,1.057,7.855,5.437zm-41.843-5.286c3.475,0.453,9.366,4.229,9.366,8.459v8.459h-17.221v12.689c1.057,2.567,3.172,2.869,4.531,2.869,1.662,0,3.776-0.604,4.683-2.719v-5.438h8.007v1.963c-1.36,6.949-8.309,8.762-12.689,8.762-4.078,0-8.762-1.057-11.782-6.042-0.302-0.604-0.604-1.511-0.604-1.813v-19.637c1.813-6.646,8.309-7.704,12.538-7.704,0.301,0,2.114,0,3.171,0.152zm56.495-8.007c0,2.568-2.266,4.381-4.531,4.381-3.021,0-4.078-2.266-4.078-4.381,0-2.719,1.359-4.079,4.229-4.079,2.568,0.001,4.38,1.814,4.38,4.079zm-102.42-7.855v1.662h-4.079v21.601h15.56v-21.601h-3.928v-1.662h16.918v1.662h-4.078v46.828h4.078v1.662h-16.918v-1.662h4.078v-23.565h-15.71v23.564h4.079v1.662h-16.919v-1.662h4.079v-46.827h-4.079v-1.662h16.919z"/></g>
</svg>